<?xml version="1.0" encoding="UTF-8"?>
<svg version="1.1" xmlns="http://www.w3.org/2000/svg" width="500" height="500">
<path d="M0 0 C1.99954746 -0.04254356 4.00041636 -0.04080783 6 0 C7 1 7 1 7.11180115 4.69345093 C7.10946095 6.35473385 7.10090553 8.01601444 7.08764648 9.67724609 C7.08378402 10.57345861 7.07992155 11.46967113 7.07594204 12.39304161 C7.01709089 22.65173134 6.81525463 32.90773479 6.59765625 43.1640625 C6.55514338 45.21902325 6.51269996 47.27398544 6.47032166 49.32894897 C6.38183632 53.59286692 6.29167753 57.85674558 6.20043945 62.12060547 C6.08425036 67.56255472 5.9736523 73.0046023 5.86443424 78.44669533 C5.7787783 82.67281938 5.68951301 86.89886163 5.59924126 91.12488937 C5.55692367 93.13176235 5.51585913 95.13866219 5.4761219 97.14558792 C5.42022307 99.94822748 5.35927215 102.75071572 5.29711914 105.55322266 C5.28201294 106.36481842 5.26690674 107.17641418 5.25134277 108.01260376 C5.1176195 113.71161976 4.63592226 119.33578121 4 125 C4.825 124.95359375 5.65 124.9071875 6.5 124.859375 C13.49358275 124.64082554 19.72181273 125.07766634 26.5 126.75 C27.15742188 126.90694336 27.81484375 127.06388672 28.4921875 127.22558594 C34.82264394 128.90832461 39.49545552 132.00964458 43.75 136.9375 C44.32234375 137.58589844 44.8946875 138.23429688 45.484375 138.90234375 C49.96992403 145.1104361 50.43596726 152.97830305 49.7890625 160.4296875 C47.47758945 172.68485592 40.2549576 182.5828627 30.09863281 189.57788086 C23.08931145 194.17762825 15.97261385 197.36208936 8 200 C7.01 200.33 6.02 200.66 5 201 C4.10106469 247.34510929 8.16279007 294.41018991 17.484375 339.828125 C17.99360098 342.96063632 18.16866434 345.83285846 18 349 C17 350 17 350 14.4375 350.0625 C13.633125 350.041875 12.82875 350.02125 12 350 C8.52257872 344.22299368 5.78822842 338.25200227 3.125 332.0625 C2.46419434 330.53387329 2.46419434 330.53387329 1.79003906 328.97436523 C-1.74232659 320.73715327 -4.94514366 312.4229276 -8 304 C-8.71172664 302.1243447 -9.42349627 300.24870366 -10.13842773 298.37426758 C-12.78408644 291.41768471 -15.26166682 284.4110084 -17.6875 277.375 C-28.40308207 245.5030385 -28.40308207 245.5030385 -42.10986328 214.85839844 C-42.47708496 214.14973633 -42.84430664 213.44107422 -43.22265625 212.7109375 C-43.73131226 211.7526001 -43.73131226 211.7526001 -44.25024414 210.77490234 C-45 209 -45 209 -45 206 C-45.66 206 -46.32 206 -47 206 C-51 199.25 -51 199.25 -51 197 C-51.66 197 -52.32 197 -53 197 C-54.7265625 195.390625 -54.7265625 195.390625 -56.625 193.25 C-57.25664062 192.55390625 -57.88828125 191.8578125 -58.5390625 191.140625 C-60 189 -60 189 -60 185 C-57 183 -57 183 -55.23828125 183.16015625 C-51.46623804 184.57549533 -47.95179802 186.50436528 -44.39648438 188.38476562 C-31.3733735 195.10224812 -18.70840292 194 -4 194 C-4 173.54 -4 153.08 -4 132 C-7.96 132 -11.92 132 -16 132 C-19.01408437 131.86512769 -22.01679406 131.7110725 -25.02661133 131.51977539 C-34.87604503 130.95207534 -44.71055217 130.78159767 -54.57421875 130.68359375 C-56.36310718 130.66294183 -58.15199164 130.64194378 -59.94087219 130.62062073 C-64.57826457 130.56624801 -69.21569449 130.51647647 -73.85314941 130.46777344 C-78.61372086 130.41692621 -83.37423991 130.36157522 -88.13476562 130.30664062 C-97.423132 130.20010156 -106.71154449 130.09843938 -116 130 C-115.72792725 131.07016357 -115.45585449 132.14032715 -115.17553711 133.24291992 C-114.81353912 134.67624423 -114.45164699 136.10959527 -114.08984375 137.54296875 C-113.91110718 138.244823 -113.73237061 138.94667725 -113.54821777 139.6697998 C-112.40811665 144.19755536 -111.42718018 148.72406814 -110.5625 153.3125 C-109.52199069 158.68108526 -108.25635618 163.91902924 -106.8125 169.1875 C-104.31891551 178.3498615 -102.27734418 187.60142042 -100.25 196.875 C-97.28465243 210.43102736 -94.11888991 223.92452488 -90.79962158 237.39807129 C-88.02378063 248.67305088 -85.37935976 259.96316899 -82.93896484 271.31665039 C-81.71405449 276.97783449 -80.33396518 282.55845268 -78.78076172 288.13818359 C-77.32305802 293.48127389 -76.03157008 298.8624287 -74.75 304.25 C-74.46898437 305.38179688 -74.18796875 306.51359375 -73.8984375 307.6796875 C-72.52186684 313.49944663 -71.54543859 318.14792736 -73 324 C-75.5 324.875 -75.5 324.875 -79 325 C-83.1095851 322.69367917 -86.87154021 319.52557079 -90 316 C-90 315.34 -90 314.68 -90 314 C-90.66 314 -91.32 314 -92 314 C-92 313.34 -92 312.68 -92 312 C-92.66 312 -93.32 312 -94 312 C-95.2890625 310.5390625 -95.2890625 310.5390625 -96.625 308.625 C-97.07101563 307.99851562 -97.51703125 307.37203125 -97.9765625 306.7265625 C-99 305 -99 305 -99 303 C-99.66 303 -100.32 303 -101 303 C-102.21411133 301.44970703 -102.21411133 301.44970703 -103.58203125 299.2578125 C-104.09548096 298.44755615 -104.60893066 297.6372998 -105.13793945 296.80249023 C-105.69054443 295.91891846 -106.24314941 295.03534668 -106.8125 294.125 C-112.74825148 284.80596184 -119.03707753 275.82168241 -125.58544922 266.92578125 C-126.8482463 265.20659875 -128.10116674 263.48102347 -129.34765625 261.75 C-133.02348348 256.6505865 -136.79251558 251.66236358 -140.75 246.77734375 C-142 245 -142 245 -142 243 C-142.99 242.67 -143.98 242.34 -145 242 C-150 236.53488372 -150 236.53488372 -150 234 C-150.66 234 -151.32 234 -152 234 C-153.45402342 232.3623728 -154.83848678 230.66265804 -156.1875 228.9375 C-159.50279428 224.77460622 -162.88533966 220.95668045 -166.78515625 217.33984375 C-168 216 -168 216 -168 214 C-168.66 214 -169.32 214 -170 214 C-170 213.34 -170 212.68 -170 212 C-170.66 212 -171.32 212 -172 212 C-172 211.34 -172 210.68 -172 210 C-172.66 210 -173.32 210 -174 210 C-174 209.34 -174 208.68 -174 208 C-174.54398437 207.77441406 -175.08796875 207.54882812 -175.6484375 207.31640625 C-178.73640119 205.58776213 -181.04454974 203.35449856 -183.625 200.9375 C-187.04209753 197.58466353 -187.04209753 197.58466353 -191 195 C-191 194.34 -191 193.68 -191 193 C-191.56203125 192.73445312 -192.1240625 192.46890625 -192.703125 192.1953125 C-195.17930222 190.90668966 -197.43844882 189.43869639 -199.75 187.875 C-200.54921875 187.33617187 -201.3484375 186.79734375 -202.171875 186.2421875 C-202.77515625 185.83226562 -203.3784375 185.42234375 -204 185 C-205.9212279 189.39385007 -207.83735656 193.78990728 -209.75 198.1875 C-210.04011963 198.85438843 -210.33023926 199.52127686 -210.62915039 200.20837402 C-215.54629722 211.52429767 -220.31322014 222.89609852 -224.95214844 234.32885742 C-227.39482479 240.30655785 -229.99083959 246.11346771 -232.93701172 251.859375 C-234.27266032 254.54907802 -235.31373577 257.2945253 -236.3125 260.125 C-241.27411063 273.3144853 -247.94867049 289.84318412 -259 299 C-259.66 299 -260.32 299 -261 299 C-261 299.66 -261 300.32 -261 301 C-268.0547046 305.07877462 -268.0547046 305.07877462 -272 304.75 C-272.99 304.37875 -272.99 304.37875 -274 304 C-274.33 302.35 -274.66 300.7 -275 299 C-273.54550599 297.9944239 -272.08627557 296.99569565 -270.625 296 C-269.81289063 295.443125 -269.00078125 294.88625 -268.1640625 294.3125 C-266 293 -266 293 -264 293 C-263.71125 292.401875 -263.4225 291.80375 -263.125 291.1875 C-262 289 -262 289 -260 286 C-259.34 286 -258.68 286 -258 286 C-257.74605469 285.32541748 -257.49210937 284.65083496 -257.23046875 283.95581055 C-255.76851061 280.44392023 -254.04730128 277.08875024 -252.3125 273.70703125 C-248.16646704 265.51487472 -244.53196009 257.15855387 -241 248.6875 C-240.38919347 247.23448115 -239.77785925 245.78168402 -239.16601562 244.32910156 C-237.43764122 240.22205446 -235.71767598 236.11153071 -234 232 C-232.50129731 228.41612157 -231.0017925 224.83258481 -229.5 221.25 C-229.19022217 220.50951416 -228.88044434 219.76902832 -228.5612793 219.00610352 C-226.29881405 213.62849754 -223.85659263 208.34653405 -221.375 203.06640625 C-219.44935534 198.77199983 -217.80029753 194.38843762 -216.17578125 189.97265625 C-215 187 -215 187 -213.29296875 183.87109375 C-211.87913272 181.20215686 -211.87913272 181.20215686 -211.90234375 178.8828125 C-213.66461249 175.85998854 -216.58679449 174.5243373 -219.5625 172.875 C-221.75956071 171.63728412 -223.87546084 170.36514199 -226 169 C-226 168.34 -226 167.68 -226 167 C-226.85980469 166.74863281 -227.71960938 166.49726563 -228.60546875 166.23828125 C-232.20713015 164.92444159 -235.08464048 163.24875828 -238.3125 161.1875 C-243.44966151 157.94344344 -248.64795798 154.87654971 -254 152 C-254 151.34 -254 150.68 -254 150 C-254.54269531 149.89042969 -255.08539063 149.78085938 -255.64453125 149.66796875 C-258.52562951 148.85094089 -261.01807372 147.67037905 -263.6875 146.3125 C-265.14736328 145.59513672 -265.14736328 145.59513672 -266.63671875 144.86328125 C-269 143 -269 143 -269.83203125 139.79296875 C-269.88746094 138.87128906 -269.94289063 137.94960937 -270 137 C-266.84515452 134.89676968 -265.31005109 134.56985495 -261.62890625 134.0703125 C-260.51459229 133.9165918 -259.40027832 133.76287109 -258.25219727 133.60449219 C-256.42579712 133.36714355 -256.42579712 133.36714355 -254.5625 133.125 C-252.66359009 132.87218262 -252.66359009 132.87218262 -250.72631836 132.61425781 C-240.96237154 131.32838939 -231.18455272 130.144456 -221.40084839 129.01947021 C-219.86340998 128.8422965 -218.32622836 128.66287744 -216.78933716 128.48101807 C-207.13365457 127.34580274 -197.73658749 126.75675423 -188 127 C-187.443125 125.1746875 -187.443125 125.1746875 -186.875 123.3125 C-185.16002648 118.14331095 -182.86511653 113.31795058 -180.54296875 108.3984375 C-178.56358703 104.03878661 -176.89379228 99.58984186 -175.2109375 95.109375 C-173.72944059 91.30527325 -172.0299305 87.62975714 -170.30859375 83.9296875 C-168.81032405 80.57535234 -167.46307411 77.17020516 -166.125 73.75 C-163.89899251 68.08561871 -161.45026144 62.57268325 -158.83007812 57.07641602 C-154.91247951 48.80102708 -151.39427801 40.3481143 -147.82861328 31.91674805 C-147.25686497 30.59417998 -146.64437294 29.28874588 -146 28 C-144.35 28 -142.7 28 -141 28 C-138.00424904 34.06347192 -136.65526255 40.299752 -135.23944092 46.8899231 C-134.49681055 50.34280929 -133.73027308 53.79038968 -132.96484375 57.23828125 C-132.80598694 57.9557402 -132.64713013 58.67319916 -132.48345947 59.41239929 C-130.56704923 68.02156001 -128.46553757 76.58501517 -126.36239624 85.15008545 C-124.66502952 92.06493585 -122.98350147 98.97926427 -121.453125 105.93359375 C-121.11112061 107.48711548 -121.11112061 107.48711548 -120.76220703 109.07202148 C-120.34923961 110.96961469 -119.94350497 112.86880218 -119.54638672 114.76977539 C-119.09232616 116.86080043 -118.55535347 118.93356847 -118 121 C-115.07297835 122.46351083 -112.1401133 122.1216415 -108.93359375 122.09765625 C-108.20453323 122.09619598 -107.47547272 122.09473572 -106.72431946 122.0932312 C-105.13379241 122.08941696 -103.54326965 122.08329181 -101.95275879 122.07516479 C-99.40827593 122.06235285 -96.86384568 122.05586938 -94.31933594 122.05102539 C-87.97623021 122.03767032 -81.63317199 122.01391111 -75.2901001 121.98962402 C-18.77909024 121.776467 -18.77909024 121.776467 -4 124 C-3.47994001 104.91705915 -2.98527649 85.83386308 -2.56149292 66.7485199 C-2.49994247 63.98178911 -2.43771062 61.2150745 -2.37524414 58.44836426 C-2.35458389 57.53278999 -2.33392365 56.61721573 -2.31263733 55.67389679 C-2.27093099 53.82588933 -2.22921349 51.97788213 -2.18748474 50.12987518 C-2.08108706 45.4040123 -1.9765229 40.67811871 -1.875 35.95214844 C-1.77419922 31.26579349 -1.66883226 26.5795613 -1.56030273 21.89337921 C-1.52033663 20.13110348 -1.48206752 18.36878839 -1.44555664 16.60643768 C-1.39514591 14.1824902 -1.33891471 11.7587451 -1.28125 9.33496094 C-1.26771484 8.61638916 -1.25417969 7.89781738 -1.24023438 7.1574707 C-1.11404617 2.22809234 -1.11404617 2.22809234 0 0 Z M-145 45 C-145.29132813 45.78761719 -145.58265625 46.57523438 -145.8828125 47.38671875 C-148.42383217 54.13879932 -151.19616893 60.69610661 -154.265625 67.22265625 C-158.05811897 75.38369086 -161.47704484 83.72022838 -165 92 C-166.03998494 94.43822556 -167.08216125 96.8754918 -168.125 99.3125 C-168.58519531 100.38886719 -169.04539062 101.46523437 -169.51953125 102.57421875 C-170.63047399 105.14492266 -171.75270835 107.70902813 -172.88671875 110.26953125 C-173.20688965 110.99422607 -173.52706055 111.7189209 -173.85693359 112.46557617 C-174.4781147 113.86934389 -175.10199194 115.27192271 -175.72900391 116.6730957 C-177.10954854 119.79413809 -178.16839961 122.67359845 -179 126 C-161.51 125.01 -144.02 124.02 -126 123 C-129.04202387 109.00669021 -132.11878555 95.07799934 -135.5625 81.1875 C-138.53803395 69.15811676 -141.36045148 57.1078645 -144 45 C-144.33 45 -144.66 45 -145 45 Z M-158.61425781 131.79956055 C-161.41965355 131.9397311 -164.22538632 132.07074002 -167.03125 132.20117188 C-168.82033898 132.28852174 -170.60940265 132.37639208 -172.3984375 132.46484375 C-173.23474701 132.50343002 -174.07105652 132.5420163 -174.93270874 132.58177185 C-179.10059406 132.70519793 -179.10059406 132.70519793 -183 134 C-183.94530274 135.75438893 -183.94530274 135.75438893 -184.76953125 137.90234375 C-185.26308105 139.10697266 -185.26308105 139.10697266 -185.76660156 140.3359375 C-186.11174805 141.19445312 -186.45689453 142.05296875 -186.8125 142.9375 C-191.15367647 153.52573529 -191.15367647 153.52573529 -193.75 158.5 C-195.49605978 161.89677158 -197.03380191 165.321452 -198.4375 168.875 C-198.78683594 169.75929687 -199.13617188 170.64359375 -199.49609375 171.5546875 C-200.20753697 173.97477382 -200.20753697 173.97477382 -199.28515625 176.1484375 C-197.23953838 179.09561947 -194.87231079 180.84576691 -192 183 C-191.34 183 -190.68 183 -190 183 C-190 183.66 -190 184.32 -190 185 C-187.86081378 187.01036785 -187.86081378 187.01036785 -185.1875 189.0625 C-184.29417969 189.77535156 -183.40085937 190.48820312 -182.48046875 191.22265625 C-180.05406627 193.14614892 -180.05406627 193.14614892 -177 194 C-177 194.66 -177 195.32 -177 196 C-176.34 196 -175.68 196 -175 196 C-175 196.66 -175 197.32 -175 198 C-174.34 198 -173.68 198 -173 198 C-173 198.66 -173 199.32 -173 200 C-171.44616853 201.53237551 -171.44616853 201.53237551 -169.4375 203.125 C-165.77324913 206.23051758 -162.63328654 209.53291385 -159.54296875 213.203125 C-158.08750092 214.8981002 -156.67145728 216.51629545 -155 218 C-154.34 218 -153.68 218 -153 218 C-153 218.66 -153 219.32 -153 220 C-152.34 220 -151.68 220 -151 220 C-150.66935547 220.79857422 -150.66935547 220.79857422 -150.33203125 221.61328125 C-148.53210656 224.83836626 -146.12776018 227.44157455 -143.6875 230.1875 C-134.51896299 240.69390499 -125.93126082 251.75268923 -118.26953125 263.41015625 C-117.85058594 263.93480469 -117.43164062 264.45945312 -117 265 C-116.34 265 -115.68 265 -115 265 C-114.773125 265.66 -114.54625 266.32 -114.3125 267 C-112.6121185 270.88658628 -110.60376916 274.63679817 -108 278 C-107.34 278 -106.68 278 -106 278 C-105.7628125 278.85464844 -105.525625 279.70929688 -105.28125 280.58984375 C-103.86038118 284.3716074 -101.88732793 287.35105714 -99.5 290.5625 C-99.06437744 291.15949707 -98.62875488 291.75649414 -98.17993164 292.37158203 C-96.79757774 294.25613755 -95.40146053 296.12961704 -94 298 C-93.52804199 298.63115723 -93.05608398 299.26231445 -92.56982422 299.91259766 C-91.19904549 301.73857125 -89.82087829 303.55855757 -88.4375 305.375 C-88.00824219 305.94033447 -87.57898438 306.50566895 -87.13671875 307.08813477 C-86.11611782 308.41172659 -85.06153288 309.70900445 -84 311 C-83.67 311 -83.34 311 -83 311 C-83.60953376 304.76782829 -84.55247724 298.74292971 -85.875 292.625 C-86.03613281 291.8515625 -86.19726562 291.078125 -86.36328125 290.28125 C-87.27220052 286.01144318 -88.30887499 281.80319515 -89.48046875 277.59765625 C-91.02191394 272.04417717 -92.25404303 266.45149434 -93.4375 260.8125 C-94.81827542 254.34622883 -96.22979094 247.90431166 -97.875 241.5 C-100.24453739 232.25302483 -102.29335134 222.93299194 -104.36279297 213.61523438 C-105.96029808 206.45972376 -107.64366311 199.33307562 -109.44042969 192.22532654 C-111.55085252 183.85935873 -113.51983464 175.46005549 -115.5 167.0625 C-115.88141799 165.44854586 -116.26292821 163.83461352 -116.64453125 162.22070312 C-119.10384793 151.81556787 -121.55282473 141.40799647 -124 131 C-135.56485074 130.86132041 -147.06500824 131.21838183 -158.61425781 131.79956055 Z M4 133 C4 152.47 4 171.94 4 192 C16.96090315 189.40781937 29.35368474 181.90006643 37 171 C40.9083405 164.42254891 43.1661662 156.97465833 41.3828125 149.3671875 C40.66929976 147.19946783 39.89684603 145.09770767 39 143 C38.34 143 37.68 143 37 143 C37 142.34 37 141.68 37 141 C36.34 141 35.68 141 35 141 C35 140.34 35 139.68 35 139 C24.1933632 133.10547084 17.01772614 133 4 133 Z M-221.375 136.875 C-222.88795228 137.05137035 -224.40097304 137.22715422 -225.9140625 137.40234375 C-234.96468933 138.46059125 -243.98614075 139.66134371 -253 141 C-250.23078596 143.90798878 -247.86340423 146.39179719 -244.16796875 148.01953125 C-240.01493087 149.96228521 -236.18424428 152.23791067 -232.3125 154.6875 C-231.62768555 155.11740234 -230.94287109 155.54730469 -230.23730469 155.99023438 C-224.59697567 159.55887237 -219.1117288 163.32161405 -213.671875 167.1875 C-211.476489 168.67676769 -209.37661918 169.85030889 -207 171 C-201.52692389 159.15446453 -196.37889776 147.29525804 -192 135 C-201.93165979 134.67496386 -211.54014078 135.68767191 -221.375 136.875 Z M-40 200 C-39.75354736 200.50748779 -39.50709473 201.01497559 -39.25317383 201.5378418 C-34.90618699 210.51890935 -30.62429732 219.44269411 -27.19604492 228.82055664 C-26.08454783 231.77524671 -24.88872944 234.67171367 -23.6484375 237.57421875 C-20.98659648 243.92985349 -18.65531101 250.37442588 -16.375 256.875 C-15.50897047 259.32332658 -14.64173802 261.77122791 -13.7734375 264.21875 C-13.43937897 265.16081802 -13.43937897 265.16081802 -13.09857178 266.12191772 C-9.9970168 274.84926982 -6.7848365 283.53639978 -3.57958984 292.22607422 C-2.92144287 294.01295654 -2.92144287 294.01295654 -2.25 295.8359375 C-1.86328125 296.88313965 -1.4765625 297.9303418 -1.078125 299.00927734 C-0.00312633 301.99132754 1.01028654 304.98868433 2 308 C2.33 308 2.66 308 3 308 C3.12568917 302.82878842 2.804289 297.9654095 2.08544922 292.84765625 C-2.10208262 262.88239774 -3.09454272 232.22353959 -4 202 C-5.51013672 202.03480469 -5.51013672 202.03480469 -7.05078125 202.0703125 C-18.1656638 202.24129014 -28.97336709 201.35563434 -40 200 Z " fill="#D4D6D5" transform="translate(349,76)"/>
<path d="M0 0 C4.29 0 8.58 0 13 0 C13.029729 2.64950684 13.029729 2.64950684 13.06005859 5.35253906 C13.12786142 11.19203875 13.20463931 17.03138344 13.28752708 22.87068558 C13.33744825 26.41065816 13.38377843 29.95060151 13.421875 33.49072266 C13.46584242 37.56171388 13.52547664 41.63234509 13.5859375 45.703125 C13.59748871 46.97303284 13.60903992 48.24294067 13.62094116 49.55133057 C13.64081085 50.73225281 13.66068054 51.91317505 13.68115234 53.12988281 C13.69447601 54.16912903 13.70779968 55.20837524 13.7215271 56.27911377 C14.00358117 59.03499064 14.49520546 60.69104984 16 63 C16.99 63.495 16.99 63.495 18 64 C18.33 43.21 18.66 22.42 19 1 C25.93 1 32.86 1 40 1 C40 1.66 40 2.32 40 3 C40.99 3.33 41.98 3.66 43 4 C35.41 3.34 27.82 2.68 20 2 C20 21.47 20 40.94 20 61 C34.32342487 55.27063005 47.71353702 49.85910125 54.25 35.3125 C54.54390625 34.58675781 54.8378125 33.86101562 55.140625 33.11328125 C55.99408429 31.01454727 56.96361061 29.01368639 58 27 C58.495 29.475 58.495 29.475 59 32 C61.14591664 30.48390606 61.14591664 30.48390606 63 28 C63.2911521 25.26317029 63.38322418 22.96059961 63.25 20.25 C63.23195313 19.55261719 63.21390625 18.85523438 63.1953125 18.13671875 C63.14838554 16.42388461 63.07664605 14.71176176 63 13 C66.60848613 16.60848613 65.93945186 22.10165567 66 27 C65.05515808 37.93567043 59.04250851 47.77944598 51 55 C42.5748637 61.33960379 34.02308704 65.68364624 24 69 C22.515 69.495 22.515 69.495 21 70 C20.10106469 116.34510929 24.16279007 163.41018991 33.484375 208.828125 C33.99360098 211.96063632 34.16866434 214.83285846 34 218 C33 219 33 219 30.4375 219.0625 C29.633125 219.041875 28.82875 219.02125 28 219 C24.52257872 213.22299368 21.78822842 207.25200227 19.125 201.0625 C18.68446289 200.04341553 18.24392578 199.02433105 17.79003906 197.97436523 C14.25767341 189.73715327 11.05485634 181.4229276 8 173 C7.28827336 171.1243447 6.57650373 169.24870366 5.86157227 167.37426758 C3.21591356 160.41768471 0.73833318 153.4110084 -1.6875 146.375 C-12.40308207 114.5030385 -12.40308207 114.5030385 -26.10986328 83.85839844 C-26.47708496 83.14973633 -26.84430664 82.44107422 -27.22265625 81.7109375 C-27.56176025 81.0720459 -27.90086426 80.4331543 -28.25024414 79.77490234 C-29 78 -29 78 -29 75 C-29.66 75 -30.32 75 -31 75 C-35 68.25 -35 68.25 -35 66 C-35.66 66 -36.32 66 -37 66 C-38.7265625 64.390625 -38.7265625 64.390625 -40.625 62.25 C-41.25664062 61.55390625 -41.88828125 60.8578125 -42.5390625 60.140625 C-44 58 -44 58 -44 54 C-41 52 -41 52 -39.23828125 52.16015625 C-35.46623804 53.57549533 -31.95179802 55.50436528 -28.39648438 57.38476562 C-15.3733735 64.10224812 -2.70840292 63 12 63 C12 42.54 12 22.08 12 1 C8.04 1 4.08 1 0 1 C0 0.67 0 0.34 0 0 Z M-24 69 C-23.75354736 69.50748779 -23.50709473 70.01497559 -23.25317383 70.5378418 C-18.90618699 79.51890935 -14.62429732 88.44269411 -11.19604492 97.82055664 C-10.08454783 100.77524671 -8.88872944 103.67171367 -7.6484375 106.57421875 C-4.98659648 112.92985349 -2.65531101 119.37442588 -0.375 125.875 C0.49102953 128.32332658 1.35826198 130.77122791 2.2265625 133.21875 C2.56062103 134.16081802 2.56062103 134.16081802 2.90142822 135.12191772 C6.0029832 143.84926982 9.2151635 152.53639978 12.42041016 161.22607422 C13.07855713 163.01295654 13.07855713 163.01295654 13.75 164.8359375 C14.13671875 165.88313965 14.5234375 166.9303418 14.921875 168.00927734 C15.99687367 170.99132754 17.01028654 173.98868433 18 177 C18.33 177 18.66 177 19 177 C19.12568917 171.82878842 18.804289 166.9654095 18.08544922 161.84765625 C13.89791738 131.88239774 12.90545728 101.22353959 12 71 C10.48986328 71.03480469 10.48986328 71.03480469 8.94921875 71.0703125 C-2.1656638 71.24129014 -12.97336709 70.35563434 -24 69 Z " fill="#C8CBCA" transform="translate(333,207)"/>
<path d="M0 0 C0.78375 0.495 1.5675 0.99 2.375 1.5 C4.78552327 3.16537965 4.78552327 3.16537965 7 3 C7.33 2.34 7.66 1.68 8 1 C5.53405209 12.05635375 0.09499282 22.58678531 -4.4375 32.9375 C-5.26635947 34.83722348 -6.09442144 36.73729318 -6.92242432 38.63739014 C-7.46960838 39.89293327 -8.01709163 41.14834605 -8.56488037 42.40362549 C-11.40774592 48.92243777 -14.20529532 55.4604014 -17 62 C-17.63259575 63.47665537 -18.26536667 64.95323574 -18.8984375 66.4296875 C-19.38570312 67.56664062 -19.87296875 68.70359375 -20.375 69.875 C-21.25 71.91666667 -22.125 73.95833333 -23 76 C-24.50559539 74.03617993 -25.89131683 72.21736634 -27 70 C-27.66 71.32 -28.32 72.64 -29 74 C-29.66 74 -30.32 74 -31 74 C-27.36761882 62.24817854 -22.40779115 50.93634442 -17.23828125 39.7890625 C-15.76913664 36.48001124 -14.44501829 33.1203145 -13.125 29.75 C-10.54676731 23.18064289 -7.65100932 16.80625403 -4.61328125 10.4375 C-2.99367597 6.98652506 -1.48251364 3.51145225 0 0 Z " fill="#C8CBCA" transform="translate(196,120)"/>
<path d="M0 0 C1.65 0 3.3 0 5 0 C7.09081263 4.60322795 8.59940025 8.90463736 9.68359375 13.8671875 C9.82414688 14.5001474 9.96470001 15.1331073 10.10951233 15.7852478 C10.55863768 17.81380534 10.99830677 19.8442713 11.4375 21.875 C11.8970014 23.96854213 12.35853629 26.06162841 12.82034302 28.15466309 C13.12360737 29.52956947 13.42608474 30.90464969 13.72775269 32.27990723 C14.56864798 36.10149011 15.44534434 39.9109559 16.37890625 43.7109375 C16.57234619 44.49871582 16.76578613 45.28649414 16.96508789 46.09814453 C17.46092712 48.0928168 17.96450907 50.08556004 18.46875 52.078125 C19 55 19 55 18 58 C17.34 58 16.68 58 16 58 C13.48916886 59.25541557 13.12874554 60.50063488 12 63 C10.89172748 58.62602993 9.78916769 54.25063787 8.6875 49.875 C8.2244043 48.04775391 8.2244043 48.04775391 7.75195312 46.18359375 C2 23.296875 2 23.296875 2 17 C1.34 17 0.68 17 0 17 C0 17.66 0 18.32 0 19 C-0.99 19.33 -1.98 19.66 -3 20 C-3.99 19.34 -4.98 18.68 -6 18 C-5.55397709 11.30965634 -2.92654458 5.97187878 0 0 Z " fill="#CED0CF" transform="translate(203,104)"/>
<path d="M0 0 C1.875 0.25 1.875 0.25 4 1 C6.37233382 4.99599676 7.1780677 9.32653911 8.1875 13.8125 C8.37763672 14.59431641 8.56777344 15.37613281 8.76367188 16.18164062 C9.89352736 21.17218314 10.05127392 24.98468686 9 30 C6.5 30.875 6.5 30.875 3 31 C-1.1095851 28.69367917 -4.87154021 25.52557079 -8 22 C-8 21.34 -8 20.68 -8 20 C-8.66 20 -9.32 20 -10 20 C-10.33 17.69 -10.66 15.38 -11 13 C-8.64316506 12.15827324 -7.3613046 11.89051376 -4.9375 12.625 C-2.47951828 14.36937412 -1.4812005 16.40685011 0 19 C-0.08378906 17.79601562 -0.16757812 16.59203125 -0.25390625 15.3515625 C-0.3570641 13.77606084 -0.45991266 12.20053891 -0.5625 10.625 C-0.61857422 9.8309375 -0.67464844 9.036875 -0.73242188 8.21875 C-1.11328125 2.2265625 -1.11328125 2.2265625 0 0 Z " fill="#D4D7D5" transform="translate(267,370)"/>
<path d="M0 0 C7.60835387 0.92222471 14.44433741 6.44183361 20.875 10.375 C21.66567871 10.85815674 22.45635742 11.34131348 23.27099609 11.83911133 C28.59623675 15.10634892 33.86369605 18.44063147 39 22 C35.93109813 23.53445094 33.29905734 22.54984289 30 22 C30.495 23.98 30.495 23.98 31 26 C26.3921375 24.65287378 22.72733826 22.76727461 18.6875 20.1875 C13.55033849 16.94344344 8.35204202 13.87654971 3 11 C3 10.34 3 9.68 3 9 C2.38125 8.87625 1.7625 8.7525 1.125 8.625 C-1 8 -1 8 -3 6 C-2.01 5.34 -1.02 4.68 0 4 C0 2.68 0 1.36 0 0 Z " fill="#C2C5C4" transform="translate(92,217)"/>
<path d="M0 0 C0.66 0.66 1.32 1.32 2 2 C4.03060659 2.36894582 4.03060659 2.36894582 6.3515625 2.4140625 C7.20234375 2.45273438 8.053125 2.49140625 8.9296875 2.53125 C9.81914062 2.5621875 10.70859375 2.593125 11.625 2.625 C12.97078125 2.68300781 12.97078125 2.68300781 14.34375 2.7421875 C16.5622927 2.83659357 18.78082403 2.92216748 21 3 C21 3.33 21 3.66 21 4 C11.1 4.495 11.1 4.495 1 5 C0.67 6.65 0.34 8.3 0 10 C-1.08019167 12.47336195 -2.1917742 14.89037077 -3.375 17.3125 C-5.84408425 22.47124589 -8.12312332 27.59017899 -10 33 C-10.598125 32.835 -11.19625 32.67 -11.8125 32.5 C-14.11344336 31.8885876 -14.11344336 31.8885876 -17 32 C-15.78350557 23.0860322 -12.48395745 15.21688079 -9 7 C-11.97 6.67 -14.94 6.34 -18 6 C-18 5.67 -18 5.34 -18 5 C-16.04310341 4.77857745 -14.08438048 4.5732432 -12.125 4.375 C-10.48917969 4.20097656 -10.48917969 4.20097656 -8.8203125 4.0234375 C-7.88960937 4.01570312 -6.95890625 4.00796875 -6 4 C-5.34 4.66 -4.68 5.32 -4 6 C-3.34 6 -2.68 6 -2 6 C-1.34 4.02 -0.68 2.04 0 0 Z " fill="#D0D3D2" transform="translate(165,205)"/>
<path d="M0 0 C0.33 0 0.66 0 1 0 C1.25394531 1.24394531 1.50789063 2.48789062 1.76953125 3.76953125 C2.1163725 5.45068918 2.46408637 7.13166723 2.8125 8.8125 C2.99192139 9.6794751 3.17134277 10.5464502 3.35620117 11.43969727 C4.5257073 16.99965295 5.86776323 22.4498299 7.58203125 27.87109375 C8.04969363 30.25311244 7.76391466 31.71864941 7 34 C6.01 33.67 5.02 33.34 4 33 C4.33 39.6 4.66 46.2 5 53 C2.63225881 50.63225881 2.53552631 49.52416663 1.96484375 46.28125 C1.79533203 45.34925781 1.62582031 44.41726563 1.45117188 43.45703125 C1.28166016 42.48121094 1.11214844 41.50539063 0.9375 40.5 C0.59502377 38.57245723 0.25009084 36.64534884 -0.09765625 34.71875 C-0.24726807 33.86216797 -0.39687988 33.00558594 -0.55102539 32.12304688 C-0.91536495 29.95887074 -0.91536495 29.95887074 -2 28 C-2.96775375 21.67973168 -3.10291192 15.38053884 -3 9 C-2.34 8.67 -1.68 8.34 -1 8 C-0.53476937 6.10466658 -0.53476937 6.10466658 -0.375 3.9375 C-0.25125 2.638125 -0.1275 1.33875 0 0 Z " fill="#CACDCB" transform="translate(263,337)"/>
<path d="M0 0 C1.16781006 0.00523682 2.33562012 0.01047363 3.53881836 0.01586914 C4.79887695 0.0190918 6.05893555 0.02231445 7.35717773 0.02563477 C8.6976732 0.03399136 10.03816799 0.04245632 11.37866211 0.05102539 C12.72306153 0.05603879 14.06746271 0.06060197 15.41186523 0.06469727 C18.71334151 0.07653051 22.01473014 0.09301568 25.31616211 0.11352539 C25.31616211 1.43352539 25.31616211 2.75352539 25.31616211 4.11352539 C22.49630343 6.93338407 19.61038485 6.6562452 15.81616211 6.86352539 C15.09944336 6.90662842 14.38272461 6.94973145 13.64428711 6.99414062 C7.97266275 7.25489764 2.78830008 6.70518091 -2.68383789 5.11352539 C-3.24633789 3.17602539 -3.24633789 3.17602539 -3.68383789 1.11352539 C-2.68383789 0.11352539 -2.68383789 0.11352539 0 0 Z " fill="#EFF1EF" transform="translate(320.683837890625,271.886474609375)"/>
<path d="M0 0 C3.60848613 3.60848613 2.93945186 9.10165567 3 14 C2.40909581 20.83916885 -0.32895773 27.23744404 -4 33 C-4.99 33.66 -5.98 34.32 -7 35 C-7 33.68 -7 32.36 -7 31 C-6.34 31 -5.68 31 -5 31 C-5.33 30.34 -5.66 29.68 -6 29 C-7.32 29 -8.64 29 -10 29 C-10.2475 29.639375 -10.495 30.27875 -10.75 30.9375 C-12 33 -12 33 -14.078125 33.62890625 C-14.71234375 33.75136719 -15.3465625 33.87382812 -16 34 C-15.60167969 33.43152344 -15.20335937 32.86304688 -14.79296875 32.27734375 C-11.6030901 27.62834786 -9.05630198 23.24357004 -7 18 C-6.34711373 16.65986503 -5.68774405 15.32258472 -5 14 C-4.67 15.65 -4.34 17.3 -4 19 C-1.85408336 17.48390606 -1.85408336 17.48390606 0 15 C0.2911521 12.26317029 0.38322418 9.96059961 0.25 7.25 C0.22292969 6.20392578 0.22292969 6.20392578 0.1953125 5.13671875 C0.14838554 3.42388461 0.07664605 1.71176176 0 0 Z M-5 26 C-4 28 -4 28 -4 28 Z " fill="#B0B5B3" transform="translate(396,220)"/>
<path d="M0 0 C3.72778638 1.37339498 4.49870947 2.11362467 6.5625 5.3125 C7.5525 5.6425 8.5425 5.9725 9.5625 6.3125 C10.74005913 9.25639782 10.59598696 10.21203913 9.5625 13.3125 C4.3081286 12.27142408 -0.26096085 9.60976775 -4.4375 6.3125 C-5.5625 2.9375 -5.5625 2.9375 -5.4375 0.3125 C-3.4375 -0.6875 -3.4375 -0.6875 0 0 Z " fill="#DADDDD" transform="translate(127.4375,238.6875)"/>
<path d="M0 0 C2 3 2 3 4 9 C30.4 9 56.8 9 84 9 C84 9.33 84 9.66 84 10 C73.36060063 10.20004021 62.7210575 10.38377968 52.0810194 10.54658794 C47.14066414 10.62269763 42.20053646 10.70446559 37.26049805 10.79907227 C32.49499666 10.89012973 27.72946822 10.96644483 22.96355629 11.03244972 C21.14336626 11.06026719 19.32325007 11.09343801 17.50325584 11.13199425 C14.95813043 11.18500663 12.41340971 11.21914724 9.86791992 11.2487793 C9.11194519 11.26891586 8.35597046 11.28905243 7.5770874 11.30979919 C2.48859479 11.34125134 2.48859479 11.34125134 0.01289368 9.61213684 C-1.92039222 6.53508986 -0.61737951 3.42365 0 0 Z " fill="#5A6061" transform="translate(228,189)"/>
<path d="M0 0 C2 3 2 3 4 9 C11.59 9 19.18 9 27 9 C27 9.33 27 9.66 27 10 C22.89699077 10.25451584 18.79284524 10.47426446 14.6875 10.6875 C13.52025391 10.76033203 12.35300781 10.83316406 11.15039062 10.90820312 C10.03212891 10.96298828 8.91386719 11.01777344 7.76171875 11.07421875 C6.73006592 11.13182373 5.69841309 11.18942871 4.63549805 11.2487793 C2 11 2 11 0.14453125 9.62304688 C-1 8 -1 8 -1.07421875 5.95703125 C-0.71614583 3.97135417 -0.35807292 1.98567708 0 0 Z " fill="#4A4E4E" transform="translate(228,189)"/>
<path d="M0 0 C0.66 0.66 1.32 1.32 2 2 C4.03060659 2.36894582 4.03060659 2.36894582 6.3515625 2.4140625 C7.20234375 2.45273438 8.053125 2.49140625 8.9296875 2.53125 C9.81914062 2.5621875 10.70859375 2.593125 11.625 2.625 C12.97078125 2.68300781 12.97078125 2.68300781 14.34375 2.7421875 C16.5622927 2.83659357 18.78082403 2.92216748 21 3 C21 3.33 21 3.66 21 4 C14.4 4.33 7.8 4.66 1 5 C0.67 6.65 0.34 8.3 0 10 C-0.66 10.66 -1.32 11.32 -2 12 C-3.6442351 7.06729471 -2.18615592 4.45975807 0 0 Z " fill="#9EA4A2" transform="translate(165,205)"/>
<path d="M0 0 C0.95988342 3.83953369 0.99223115 5.32874473 0 9 C-1.68300669 10.68300669 -3.82008727 10.22809077 -6.12890625 10.31640625 C-7.68061523 10.37924805 -7.68061523 10.37924805 -9.26367188 10.44335938 C-10.8965918 10.50233398 -10.8965918 10.50233398 -12.5625 10.5625 C-14.2012207 10.62727539 -14.2012207 10.62727539 -15.87304688 10.69335938 C-18.58189564 10.79982068 -21.29083992 10.90183516 -24 11 C-24 10.67 -24 10.34 -24 10 C-17.03220597 8.67280114 -10.07011089 8.91174619 -3 9 C-2.01 6.03 -1.02 3.06 0 0 Z " fill="#888D8C" transform="translate(164,194)"/>
<path d="M0 0 C0.99 0.33 1.98 0.66 3 1 C3.33 1.99 3.66 2.98 4 4 C5.0209375 4.7425 5.0209375 4.7425 6.0625 5.5 C6.701875 5.995 7.34125 6.49 8 7 C8 7.99 8 8.98 8 10 C8.66 10.33 9.32 10.66 10 11 C11.6875 13.9375 11.6875 13.9375 13 17 C12.67 17.66 12.34 18.32 12 19 C11.38511719 18.10796875 10.77023438 17.2159375 10.13671875 16.296875 C9.32035449 15.11455434 8.5039459 13.93226429 7.6875 12.75 C7.28337891 12.16347656 6.87925781 11.57695312 6.46289062 10.97265625 C4.75896144 8.50680751 3.05174872 6.06629248 1.20703125 3.703125 C0 2 0 2 0 0 Z " fill="#888C8C" transform="translate(227,346)"/>
<path d="M0 0 C0.66 0.33 1.32 0.66 2 1 C1.01 2.485 1.01 2.485 0 4 C-0.99 4 -1.98 4 -3 4 C-3 4.66 -3 5.32 -3 6 C-7.27720165 9.44935617 -11.71876659 9.6663273 -17 10 C-13.62294272 7.74862848 -10.12422495 6.07334504 -6.47265625 4.31640625 C-4.11178781 3.05951421 -2.08917754 1.66261693 0 0 Z " fill="#828484" transform="translate(375,257)"/>
<path d="M0 0 C0.99 0.495 0.99 0.495 2 1 C2 2.98 2 4.96 2 7 C2.66 7 3.32 7 4 7 C5.07637127 10.87493656 4.94566951 12.52452927 3 16 C2.49193553 14.27318563 1.99389533 12.54342021 1.5 10.8125 C1.08234375 9.36810547 1.08234375 9.36810547 0.65625 7.89453125 C0.03322392 5.14654124 -0.12302812 2.80401584 0 0 Z " fill="#9EA1A1" transform="translate(246,296)"/>
<path d="M0 0 C0 0.33 0 0.66 0 1 C-3.96 1.99 -7.92 2.98 -12 4 C-12 5.65 -12 7.3 -12 9 C-12.66 9 -13.32 9 -14 9 C-14.33 7.02 -14.66 5.04 -15 3 C-10.12206417 -0.25195722 -5.77608621 -0.11325659 0 0 Z " fill="#6F7372" transform="translate(94,210)"/>
<path d="M0 0 C0.33 0 0.66 0 1 0 C1.50690584 2.06081361 2.00524619 4.12373526 2.5 6.1875 C2.7784375 7.33605469 3.056875 8.48460937 3.34375 9.66796875 C3.91495385 12.56818829 4.13283779 15.06096385 4 18 C3.67 16.68 3.34 15.36 3 14 C2.34 14 1.68 14 1 14 C-0.512545 8.83955235 -1.33500455 5.34001821 0 0 Z " fill="#868A89" transform="translate(263,337)"/>
<path d="M0 0 C0.99 0.66 1.98 1.32 3 2 C1.625 3.5 1.625 3.5 0 5 C-0.66 5 -1.32 5 -2 5 C-2 5.66 -2 6.32 -2 7 C-3.98 7.66 -5.96 8.32 -8 9 C-8 8.34 -8 7.68 -8 7 C-7.01 7 -6.02 7 -5 7 C-4.34 5.68 -3.68 4.36 -3 3 C-2.01 3 -1.02 3 0 3 C0 2.01 0 1.02 0 0 Z " fill="#9BA09C" transform="translate(90,370)"/>
<path d="M0 0 C1.65 1.32 3.3 2.64 5 4 C4.67 4.66 4.34 5.32 4 6 C3.01 5.67 2.02 5.34 1 5 C0.67 3.35 0.34 1.7 0 0 Z M-5 5 C-3.02 5 -1.04 5 1 5 C0.34 6.32 -0.32 7.64 -1 9 C-1.66 9 -2.32 9 -3 9 C-3 8.34 -3 7.68 -3 7 C-3.66 7 -4.32 7 -5 7 C-5 6.34 -5 5.68 -5 5 Z " fill="#8E9390" transform="translate(389,210)"/>
<path d="M0 0 C0.96846689 2.61486062 1.04559628 3.8442127 0.25 6.5625 C-0.93965623 8.88232965 -2.04240712 10.30935161 -4 12 C-3.33501617 7.61110675 -1.81242323 4.0188515 0 0 Z " fill="#7F8785" transform="translate(185,145)"/>
<path d="M0 0 C1.32 0.33 2.64 0.66 4 1 C4.66 4.63 5.32 8.26 6 12 C0 4 0 4 0 0 Z " fill="#727876" transform="translate(304,283)"/>
<path d="M0 0 C1 3 1 3 0.00390625 5.04296875 C-0.47175781 5.75066406 -0.94742188 6.45835937 -1.4375 7.1875 C-1.91058594 7.90292969 -2.38367188 8.61835938 -2.87109375 9.35546875 C-3.24363281 9.89816406 -3.61617188 10.44085938 -4 11 C-4.33 9.68 -4.66 8.36 -5 7 C-4.34 6.67 -3.68 6.34 -3 6 C-2.34786708 3.97536745 -2.34786708 3.97536745 -2 2 C-1.34 2 -0.68 2 0 2 C0 1.34 0 0.68 0 0 Z " fill="#818685" transform="translate(104,351)"/>
<path d="M0 0 C0.99 0.33 1.98 0.66 3 1 C2.67 2.32 2.34 3.64 2 5 C0.35 4.67 -1.3 4.34 -3 4 C-2.01 2.68 -1.02 1.36 0 0 Z " fill="#F6F8F4" transform="translate(126,292)"/>
<path d="M0 0 C0.99 0.33 1.98 0.66 3 1 C3 4.63 3 8.26 3 12 C2.67 12 2.34 12 2 12 C0.86235649 7.73383684 0 4.43513689 0 0 Z " fill="#808583" transform="translate(242,280)"/>
<path d="M0 0 C0.33 0 0.66 0 1 0 C1.36552803 1.41377782 1.71695495 2.83120576 2.0625 4.25 C2.25972656 5.03890625 2.45695313 5.8278125 2.66015625 6.640625 C3.01497267 9.10394822 2.76877544 10.65604132 2 13 C2 12.34 2 11.68 2 11 C1.34 11 0.68 11 0 11 C0 7.37 0 3.74 0 0 Z " fill="#7F8383" transform="translate(236,222)"/>
<path d="M0 0 C1.32 0.33 2.64 0.66 4 1 C3.34 1 2.68 1 2 1 C1.87625 1.78375 1.7525 2.5675 1.625 3.375 C1 6 1 6 -1 8 C-1.625 5.6875 -1.625 5.6875 -2 3 C-1.34 2.01 -0.68 1.02 0 0 Z " fill="#8E908E" transform="translate(164,209)"/>
<path d="M0 0 C1.98 0.99 1.98 0.99 4 2 C4 2.99 4 3.98 4 5 C5.32 5.66 6.64 6.32 8 7 C5.6875 7.25 5.6875 7.25 3 7 C1.1875 5.1875 1.1875 5.1875 0 3 C0 2.01 0 1.02 0 0 Z " fill="#8D9291" transform="translate(358,419)"/>
<path d="M0 0 C0.33 0.66 0.66 1.32 1 2 C1.99 2.33 2.98 2.66 4 3 C4 5.64 4 8.28 4 11 C1.6870518 8.6870518 1.50419025 7.52095125 0.875 4.375 C0.70742188 3.55773437 0.53984375 2.74046875 0.3671875 1.8984375 C0.24601562 1.27195312 0.12484375 0.64546875 0 0 Z " fill="#7E8381" transform="translate(320,319)"/>
<path d="M0 0 C2.4294516 3.6441774 2.16179575 5.71241272 2 10 C1.01 9.67 0.02 9.34 -1 9 C-0.67 6.03 -0.34 3.06 0 0 Z " fill="#979F9F" transform="translate(228,189)"/>
<path d="M0 0 C0.33 0 0.66 0 1 0 C1.33 3.63 1.66 7.26 2 11 C-0.40563753 8.59436247 -0.60358311 7.32990189 -1 4 C-0.5625 1.6875 -0.5625 1.6875 0 0 Z " fill="#424644" transform="translate(352,380)"/>
<path d="M0 0 C0.6875 1.8125 0.6875 1.8125 1 4 C-0.4375 5.75 -0.4375 5.75 -2 7 C-2.99 6.67 -3.98 6.34 -5 6 C-3.35 4.02 -1.7 2.04 0 0 Z " fill="#9A9D9B" transform="translate(385,247)"/>
<path d="M0 0 C0.33 0.66 0.66 1.32 1 2 C1.99 2.33 2.98 2.66 4 3 C3.34 4.65 2.68 6.3 2 8 C0.23537317 4.91190305 0 3.76687864 0 0 Z " fill="#9B9F9F" transform="translate(229,224)"/>
<path d="M0 0 C0.99 0 1.98 0 3 0 C2.40138258 2.35171131 1.73075648 4.6859378 1 7 C0.01 7.495 0.01 7.495 -1 8 C-0.67 5.36 -0.34 2.72 0 0 Z " fill="#9A9D9B" transform="translate(158,222)"/>
</svg>
